<svg xmlns="http://www.w3.org/2000/svg" width="26.952" height="27.002" viewBox="0 0 26.952 27.002">
  <path id="phone" d="M27.062,20.717v3.764a2.509,2.509,0,0,1-2.735,2.509A24.827,24.827,0,0,1,13.5,23.138a24.463,24.463,0,0,1-7.527-7.527A24.827,24.827,0,0,1,2.122,4.735,2.509,2.509,0,0,1,4.619,2H8.382a2.509,2.509,0,0,1,2.509,2.158,16.108,16.108,0,0,0,.878,3.525A2.509,2.509,0,0,1,11.2,10.33L9.611,11.923a20.072,20.072,0,0,0,7.527,7.527l1.593-1.593a2.509,2.509,0,0,1,2.647-.565,16.108,16.108,0,0,0,3.525.878,2.509,2.509,0,0,1,2.158,2.547Z" transform="translate(-1.111 -1)" fill="none" stroke="#000" stroke-linecap="round" stroke-linejoin="round" stroke-width="2"/>
</svg>
