<svg xmlns="http://www.w3.org/2000/svg" width="31.5" height="22.744" viewBox="0 0 31.5 22.744">
  <g id="toggler-icon" transform="translate(-5.25 -9.795)">
    <path id="Path_22" data-name="Path 22" d="M7,22.75A1.75,1.75,0,1,0,5.25,21,1.75,1.75,0,0,0,7,22.75Z" fill="none"/>
    <path id="Path_23" data-name="Path 23" d="M35.1,19.25H13.9A1.645,1.645,0,0,0,12.25,20.9v.21A1.645,1.645,0,0,0,13.9,22.75H35.1A1.645,1.645,0,0,0,36.75,21.1V20.9A1.645,1.645,0,0,0,35.1,19.25Z" fill="none"/>
    <path id="Path_24" data-name="Path 24" d="M35.1,28H6.895A1.938,1.938,0,0,0,5.25,30.133v.272a1.938,1.938,0,0,0,1.645,2.133H35.1a1.938,1.938,0,0,0,1.645-2.133v-.272A1.938,1.938,0,0,0,35.1,28Z" fill="none"/>
    <path id="Path_25" data-name="Path 25" d="M35.1,10.5H6.895A1.834,1.834,0,0,0,5.25,12.476v.252A1.834,1.834,0,0,0,6.895,14.7H35.1a1.834,1.834,0,0,0,1.645-1.976v-.252A1.834,1.834,0,0,0,35.1,10.5Z" transform="translate(0 -0.705)" fill="none"/>
    <path id="Path_32" data-name="Path 32" d="M35.1,10.5H6.895A1.6,1.6,0,0,0,5.25,12.051v.2A1.6,1.6,0,0,0,6.895,13.8H35.1a1.6,1.6,0,0,0,1.645-1.551v-.2A1.6,1.6,0,0,0,35.1,10.5Z"/>
    <path id="Path_33" data-name="Path 33" d="M29.741,10.5H6.6A1.461,1.461,0,0,0,5.25,12.051v.2A1.461,1.461,0,0,0,6.6,13.8H29.741a1.461,1.461,0,0,0,1.349-1.551v-.2A1.461,1.461,0,0,0,29.741,10.5Z" transform="translate(5.659 6)"/>
    <path id="Path_34" data-name="Path 34" d="M35.1,10.5H6.895A1.6,1.6,0,0,0,5.25,12.051v.2A1.6,1.6,0,0,0,6.895,13.8H35.1a1.6,1.6,0,0,0,1.645-1.551v-.2A1.6,1.6,0,0,0,35.1,10.5Z" transform="translate(0 12)"/>
    <path id="Path_35" data-name="Path 35" d="M29.741,10.5H6.6A1.461,1.461,0,0,0,5.25,12.051v.2A1.461,1.461,0,0,0,6.6,13.8H29.741a1.461,1.461,0,0,0,1.349-1.551v-.2A1.461,1.461,0,0,0,29.741,10.5Z" transform="translate(5.659 18)"/>
  </g>
</svg>
