<svg id="Layer_1" data-name="Layer 1" xmlns="http://www.w3.org/2000/svg" xmlns:xlink="http://www.w3.org/1999/xlink" width="762.32mm" height="199.47mm" viewBox="0 0 2160.89 565.43">
  <defs>
    <style>
      .cls-1, .cls-2, .cls-3 {
        fill-rule: evenodd;
      }

      .cls-1 {
        fill: url(#linear-gradient);
      }

      .cls-2 {
        fill: url(#linear-gradient-2);
      }

      .cls-3 {
        fill: url(#linear-gradient-3);
      }
    </style>
    <linearGradient id="linear-gradient" x1="320.73" y1="542.89" x2="320.73" y2="242.64" gradientUnits="userSpaceOnUse">
      <stop offset="0" stop-color="#eb2e36"/>
      <stop offset="1" stop-color="#f54d30"/>
    </linearGradient>
    <linearGradient id="linear-gradient-2" x1="320.73" y1="313.06" x2="320.73" y2="22.54" xlink:href="#linear-gradient"/>
    <linearGradient id="linear-gradient-3" x1="653.49" y1="345.05" x2="2143.02" y2="345.05" xlink:href="#linear-gradient"/>
  </defs>
  <title>Zeichenfläche 3</title>
  <g>
    <path class="cls-1" d="M519.55,257.93v86.13A197.33,197.33,0,0,1,486,454.26a199,199,0,0,1-55.06,55.06,197.43,197.43,0,0,1-110.2,33.57h0a197.28,197.28,0,0,1-110.2-33.57A200.85,200.85,0,0,1,137,419.93a197.58,197.58,0,0,1-15.12-75.87V257.93h0a15.08,15.08,0,0,1,.79-4.83,15.24,15.24,0,0,1,19.3-9.62l44.7,15a15.3,15.3,0,0,1,11.63,14.86v70.75a121.35,121.35,0,0,0,9.29,46.62,122.78,122.78,0,0,0,89.3,73.4,121.58,121.58,0,0,0,23.77,2.34h0a121.35,121.35,0,0,0,46.62-9.29,124.13,124.13,0,0,0,66.46-66.45,121.06,121.06,0,0,0,9.27-46.62V273.31h0a15.26,15.26,0,0,1,10.42-14.46l44.69-15a15.29,15.29,0,0,1,21.32,14.05Z"/>
    <path class="cls-2" d="M328.9,23.93l276.26,92.55a24.08,24.08,0,0,1,0,46.81L328.9,255.85h0a24.62,24.62,0,0,1-16.31,0h0L138,197.38a1.94,1.94,0,0,1,0-3.76l176.83-60.71q2.88.19,5.88.19c23.3,0,42.18-8.8,42.18-19.66S344,93.78,320.73,93.78s-42.19,8.81-42.19,19.66c0,.3,0,.59,0,.87L93,178c-6.1,2.63-5.64,3.82-5.78,8.68v36a20.48,20.48,0,0,1,1.05,27.37,24.29,24.29,0,0,1,8.58,18.5V308.2A4.88,4.88,0,0,1,92,313.06H53.1a4.87,4.87,0,0,1-4.86-4.86V268.55a24.29,24.29,0,0,1,8.58-18.5,20.49,20.49,0,0,1,1-27.37V170.52l-21.57-7.23a24.08,24.08,0,0,1,0-46.81L312.55,23.93h0a24.62,24.62,0,0,1,16.31,0Z"/>
    <path class="cls-3" d="M653.49,371.94c0,20.94,6.86,38.27,20.94,52.34s31.76,21,53.06,21q35.75,0,56.31-28.16v22.74h45.12V252.1H783.8V359c0,24.55-18.41,43.31-42.59,43.31-24.55,0-42.6-18.76-42.6-43.31V252.1H653.49V371.94Zm382.06-63.17c-14.44-37.54-49.82-62.08-92.77-62.08-28.52,0-52,9.38-71.11,28.51C852.89,294,843.51,317.44,843.51,346s9.38,52,28.16,71.12c19.13,18.77,42.59,28.16,71.11,28.16,43,0,78.33-24.55,92.77-62.1l-45.12-13.35c-8.31,18.77-26.36,30.32-47.65,30.32-14.8,0-27.44-5.05-37.54-15.52S890.08,361.47,890.08,346s5-28.15,15.16-38.62,22.74-15.52,37.54-15.52c21.29,0,39.34,11.55,47.65,30.32l45.12-13.36ZM1131,246.69c-26,0-47.65,9.38-65.34,28.51-17.32,18.77-26,42.24-26,70.75s8.67,52,26,71.12c17.69,18.77,39.35,28.16,65.34,28.16A88.88,88.88,0,0,0,1188,425v14.8h44.76V252.1H1188v14.8a88.82,88.82,0,0,0-57-20.21Zm41.51,60.64c9.75,10.47,14.8,23.1,14.8,38.62s-5,28.16-14.8,38.63-21.66,15.52-35.74,15.52-26.35-5.05-36.09-15.52-14.44-23.11-14.44-38.63,4.69-28.15,14.44-38.62,22-15.52,36.09-15.52,26,5.05,35.74,15.52Zm166.19-60.64c-26,0-47.64,9.38-65.33,28.51-17.33,18.77-26,42.24-26,70.75s8.66,52,26,71.12c17.69,18.77,39.34,28.16,65.33,28.16a88.93,88.93,0,0,0,57-20.22v14.8h44.76V169.08h-44.76V266.9a88.86,88.86,0,0,0-57-20.21Zm41.51,60.64C1390,317.8,1395,330.43,1395,346s-5,28.16-14.8,38.63-21.66,15.52-35.73,15.52-26.35-5.05-36.1-15.52-14.44-23.11-14.44-38.63,4.69-28.15,14.44-38.62,22-15.52,36.1-15.52,26,5.05,35.73,15.52Zm270.52,55.23a114,114,0,0,0,1.44-16.61c0-28.15-9.38-51.62-28.51-70.75-18.77-19.13-42.24-28.51-70-28.51s-51.26,9.38-70.39,28.51c-18.77,18.77-28.16,42.24-28.16,70.75s9.75,52,28.88,71.12q29.23,28.15,72.55,28.16c37.91,0,70.39-18.78,87.72-48.74l-43.68-12.64c-10.82,13.36-25.63,19.86-44,19.86-26.35,0-48-16.6-54.87-41.15Zm-148.72-35c6.86-23.46,27.43-39.34,50.89-39.34,24.55,0,45.49,15.88,52.71,39.34Zm206.26,112.27V329.35c0-22.74,17.33-39.71,39.34-39.71s39,17,39,39.71V439.81h45.12V329.35c0-22.74,17.33-39.71,39.35-39.71s39,17,39,39.71V439.81h44.77V316.36c0-19.86-7.23-36.46-21.3-49.82s-31.77-19.85-53.43-19.85c-26.35,0-46.56,10.11-59.92,30.68-13.36-20.57-33.21-30.68-59.2-30.68-22,0-39.71,8.3-52.7,25.26V252.1h-45.12V439.81Zm311.67,9.38c-7.59,19.13-22,28.88-43.68,28.88H1969v43h7.22c41.51,0,66-17.33,81.94-56.68L2143,252.1h-46.57l-49.09,126.7-48-126.7h-46.57L2025,436.2l-5,13Z"/>
  </g>
</svg>
